<svg width="149" height="20" viewBox="0 0 149 20" fill="none" xmlns="http://www.w3.org/2000/svg">
<g clip-path="url(#clip0_20_130)">
<path fill-rule="evenodd" clip-rule="evenodd" d="M37.1039 17.4332V11.4332H39.8541V17.7112H49.6514V2.28877H37.7113V0H52.413V17.4332L49.6514 20H39.8541L37.1039 17.4332Z" fill="#252B37"/>
<path fill-rule="evenodd" clip-rule="evenodd" d="M130.024 20L135.536 9.43315L130.482 0H133.485L137.977 8.57754H141.047L145.539 0H148.542L143.488 9.43315L149 20H146.009L141.345 10.8556H137.679L133.026 20H130.024Z" fill="#252B37"/>
<path fill-rule="evenodd" clip-rule="evenodd" d="M98.7414 20V0H102.66L113.134 17.0053V0H115.884V20H111.965L101.503 3.00535V20H98.7414Z" fill="#252B37"/>
<path fill-rule="evenodd" clip-rule="evenodd" d="M74.1963 20V14H71.5034L66.5417 0H69.4523L73.4285 11.7754H77.7141L81.7018 0H84.6124L79.6507 14H76.9579V20H74.1963Z" fill="#252B37"/>
<path d="M21.428 8.85564L-9.15527e-05 8.85564L-9.15527e-05 11.1444L21.428 11.1444V8.85564Z" fill="#F65009"/>
<path d="M11.9401 0L9.48792 0L9.48792 20H11.9401L11.9401 0Z" fill="#F65009"/>
<path d="M4.00835 2.11969L2.27438 3.7381L17.4264 17.8802L19.1603 16.2618L4.00835 2.11969Z" fill="#F65009"/>
<path d="M17.4264 2.11972L2.27438 16.2619L4.00835 17.8803L19.1603 3.73813L17.4264 2.11972Z" fill="#F65009"/>
</g>
<defs>
<clipPath id="clip0_20_130">
<rect width="149" height="20" fill="white"/>
</clipPath>
</defs>
</svg>
