<svg width="149" height="20" viewBox="0 0 149 20" fill="none" xmlns="http://www.w3.org/2000/svg" xmlns:xlink="http://www.w3.org/1999/xlink">
<g clip-path="url(#clip0_309_58)">
<path d="M52.2133 0.200195V17.3457L49.5727 19.7998H39.933L37.3041 17.3457V11.6328H39.6537V17.9111H49.851V2.08887H37.9116V0.200195H52.2133Z" fill="white" stroke="black" stroke-width="0.4"/>
<path d="M133.364 0.200195L137.799 8.66992L137.855 8.77734H141.169L141.224 8.66992L145.66 0.200195H148.207L143.312 9.33887L143.262 9.43164L143.311 9.52539L148.671 19.7998H146.131L141.524 10.7646L141.468 10.6553H137.556L137.501 10.7646L132.904 19.7998H130.354L135.714 9.52539L135.762 9.43164L135.713 9.33887L130.817 0.200195H133.364Z" fill="white"/>
<path d="M133.364 0.200195L137.799 8.66992L137.855 8.77734H141.169L141.224 8.66992L145.66 0.200195H148.207L143.312 9.33887L143.262 9.43164L143.311 9.52539L148.671 19.7998H146.131L141.524 10.7646L141.468 10.6553H137.556L137.501 10.7646L132.904 19.7998H130.354L135.714 9.52539L135.762 9.43164L135.713 9.33887L130.817 0.200195H133.364Z" fill="url(#pattern0_309_58)" fill-opacity="0.71"/>
<path d="M133.364 0.200195L137.799 8.66992L137.855 8.77734H141.169L141.224 8.66992L145.66 0.200195H148.207L143.312 9.33887L143.262 9.43164L143.311 9.52539L148.671 19.7998H146.131L141.524 10.7646L141.468 10.6553H137.556L137.501 10.7646L132.904 19.7998H130.354L135.714 9.52539L135.762 9.43164L135.713 9.33887L130.817 0.200195H133.364Z" fill="url(#paint0_linear_309_58)"/>
<path d="M133.364 0.200195L137.799 8.66992L137.855 8.77734H141.169L141.224 8.66992L145.66 0.200195H148.207L143.312 9.33887L143.262 9.43164L143.311 9.52539L148.671 19.7998H146.131L141.524 10.7646L141.468 10.6553H137.556L137.501 10.7646L132.904 19.7998H130.354L135.714 9.52539L135.762 9.43164L135.713 9.33887L130.817 0.200195H133.364Z" stroke="black" stroke-width="0.4"/>
<path d="M102.549 0.200195L112.963 17.1104L113.334 17.7119V0.200195H115.684V19.7998H112.076L101.673 2.90039L101.303 2.29883V19.7998H98.9416V0.200195H102.549Z" fill="white"/>
<path d="M102.549 0.200195L112.963 17.1104L113.334 17.7119V0.200195H115.684V19.7998H112.076L101.673 2.90039L101.303 2.29883V19.7998H98.9416V0.200195H102.549Z" fill="url(#pattern1_309_58)" fill-opacity="0.71"/>
<path d="M102.549 0.200195L112.963 17.1104L113.334 17.7119V0.200195H115.684V19.7998H112.076L101.673 2.90039L101.303 2.29883V19.7998H98.9416V0.200195H102.549Z" fill="url(#paint1_linear_309_58)"/>
<path d="M102.549 0.200195L112.963 17.1104L113.334 17.7119V0.200195H115.684V19.7998H112.076L101.673 2.90039L101.303 2.29883V19.7998H98.9416V0.200195H102.549Z" stroke="black" stroke-width="0.4"/>
<path d="M69.3083 0.200195L73.239 11.8398L73.2849 11.9756H77.8571L77.904 11.8398L81.8454 0.200195H84.3288L79.5105 13.7998H76.7575V19.7998H74.3962V13.7998H71.6443L66.8249 0.200195H69.3083Z" fill="white"/>
<path d="M69.3083 0.200195L73.239 11.8398L73.2849 11.9756H77.8571L77.904 11.8398L81.8454 0.200195H84.3288L79.5105 13.7998H76.7575V19.7998H74.3962V13.7998H71.6443L66.8249 0.200195H69.3083Z" fill="url(#pattern2_309_58)" fill-opacity="0.71"/>
<path d="M69.3083 0.200195L73.239 11.8398L73.2849 11.9756H77.8571L77.904 11.8398L81.8454 0.200195H84.3288L79.5105 13.7998H76.7575V19.7998H74.3962V13.7998H71.6443L66.8249 0.200195H69.3083Z" fill="url(#paint2_linear_309_58)"/>
<path d="M69.3083 0.200195L73.239 11.8398L73.2849 11.9756H77.8571L77.904 11.8398L81.8454 0.200195H84.3288L79.5105 13.7998H76.7575V19.7998H74.3962V13.7998H71.6443L66.8249 0.200195H69.3083Z" stroke="black" stroke-width="0.4"/>
<path d="M21.428 8.85564L-9.15527e-05 8.85564L-9.15527e-05 11.1444L21.428 11.1444V8.85564Z" fill="#333333"/>
<path d="M11.9401 0L9.48792 0L9.48792 20H11.9401L11.9401 0Z" fill="#333333"/>
<path d="M4.00835 2.11968L2.27438 3.73808L17.4264 17.8802L19.1603 16.2618L4.00835 2.11968Z" fill="#333333"/>
<path d="M17.4264 2.11972L2.27438 16.2619L4.00835 17.8803L19.1603 3.73813L17.4264 2.11972Z" fill="#333333"/>
</g>
<defs>
<linearGradient id="paint0_linear_309_58" x1="133.25" y1="17.038" x2="148.079" y2="-0.0673251" gradientUnits="userSpaceOnUse">
<stop stop-color="white" stop-opacity="0"/>
<stop offset="1" stop-color="white"/>
</linearGradient>
<linearGradient id="paint1_linear_309_58" x1="101.656" y1="17.038" x2="116.624" y2="1.44077" gradientUnits="userSpaceOnUse">
<stop stop-color="white" stop-opacity="0"/>
<stop offset="1" stop-color="white"/>
</linearGradient>
<linearGradient id="paint2_linear_309_58" x1="69.614" y1="17.038" x2="84.5286" y2="0.654633" gradientUnits="userSpaceOnUse">
<stop stop-color="white" stop-opacity="0"/>
<stop offset="1" stop-color="white"/>
</linearGradient>
<clipPath id="clip0_309_58">
<rect width="149" height="20" fill="white"/>
</clipPath>
<pattern id="pattern0_309_58" patternUnits="userSpaceOnUse" patternTransform="matrix(163.356 0 0 163.356 57.834 -71.678)" preserveAspectRatio="none" viewBox="0 0 163.356 163.356" width="1" height="1">
<g id="pattern0_309_58_inner">
<rect x="0.5" y="0.5" width="162.356" height="162.356" stroke="#CECECE"/>
</g>
</pattern><pattern id="pattern1_309_58" patternUnits="userSpaceOnUse" patternTransform="matrix(163.356 0 0 163.356 25.6346 -71.678)" preserveAspectRatio="none" viewBox="0 0 163.356 163.356" width="1" height="1">
<g id="pattern1_309_58_inner">
<rect x="0.5" y="0.5" width="162.356" height="162.356" stroke="#CECECE"/>
</g>
</pattern><pattern id="pattern2_309_58" patternUnits="userSpaceOnUse" patternTransform="matrix(163.356 0 0 163.356 -6.10092 -71.678)" preserveAspectRatio="none" viewBox="0 0 163.356 163.356" width="1" height="1">
<g id="pattern2_309_58_inner">
<rect x="0.5" y="0.5" width="162.356" height="162.356" stroke="#CECECE"/>
</g>
</pattern></defs>
</svg>
